# xmcd
# Copyright (C) 1995-1998 Ti Kan
#
# Track frame offsets:
#       150
#       11208
#       48093
#       65800
#       74697
#       87878
#       99399
#       116562
#       146937
#       167774
#       193705
#       215283
#       223863
#       237165
#
# Disc length: 3432 seconds
#
# Revision: 0
# Processed by: cddbd v1.5.2PL0 Copyright (c) Steve Scherf et al.
# Submitted via: CD-Import v1.0
#
DISCID=d60d660e
DTITLE=Rufus Wainwright - Rufus Does Judy At Carnegie Hall [CD2)
DYEAR=1900
DGENRE=
TTITLE0=That's Entertainment
TTITLE1=I Can't Give You Anything But Love
TTITLE2=Come Rain Or Come Shine
TTITLE3=You're Nearer
TTITLE4=A Foggy Day
TTITLE5=If Love Were All
TTITLE6=Zing! Went The Strings Of My Heart
TTITLE7=Stormy Weather
TTITLE8=Medley: Yo Made Me Love You/For Me And My Gal/The Trolley Song
TTITLE9=Rock-A-Bye Your Baby With A Dixie Melody
TTITLE10=Over The Rainbow
TTITLE11=Swanee
TTITLE12=After You've Gone
TTITLE13=Chicago
EXTD=
EXTT0=
EXTT1=
EXTT2=
EXTT3=
EXTT4=
EXTT5=
EXTT6=
EXTT7=
EXTT8=
EXTT9=
EXTT10=
EXTT11=
EXTT12=
EXTT13=
PLAYORDER=
